/* XPM */
static char * pix4_xpm[] = {
"20 20 5 1",
" 	c #8800FC",
".	c #FF0077",
"+	c #0967FF",
"@	c #1AD7F5",
"#	c #00FF72",
"#########@@@@@@@++++",
"########@@@@@@@+++++",
"#######@@@@@@@++++++",
"######@@@@@@@+++++++",
"#####@@@@@@@++++++++",
"####@@@@@@@++++++++ ",
"###@@@@@@@++++++++  ",
"##@@@@@@@++++++++   ",
"#@@@@@@@++++++++    ",
"@@@@@@@++++++++     ",
"@@@@@@++++++++      ",
"@@@@@++++++++       ",
"@@@@++++++++        ",
"@@@++++++++        .",
"@@++++++++        ..",
"@++++++++        ...",
"++++++++        ....",
"+++++++        .....",
"++++++        ......",
"++++         ......."};
