/* XPM */
static char * pix_xpm[] = {
"20 20 8 1",
" 	c #FF0000",
".	c #00FFFF",
"+	c #0000FF",
"@	c #FFFF00",
"#	c #00FF00",
"$	c #FF00FF",
"%	c #FF9B00",
"&	c #2F2DC0",
"     .....+++++@@@@@",
"     .....+++++@@@@@",
"     .....+++++@@@@@",
"     .....+++++@@@@@",
"     .....+++++@@@@@",
"#####$$$$$%%%%%&&&&&",
"#####$$$$$%%%%%&&&&&",
"#####$$$$$%%%%%&&&&&",
"#####$$$$$%%%%%&&&&&",
"#####$$$$$%%%%%&&&&&",
"+++++@@@@@     .....",
"+++++@@@@@     .....",
"+++++@@@@@     .....",
"+++++@@@@@     .....",
"+++++@@@@@     .....",
"%%%%%&&&&&#####$$$$$",
"%%%%%&&&&&#####$$$$$",
"%%%%%&&&&&#####$$$$$",
"%%%%%&&&&&#####$$$$$",
"%%%%%&&&&&#####$$$$$"};
